<svg width="650" height="595" viewBox="0 0 650 595" fill="none" xmlns="http://www.w3.org/2000/svg">
<path fill-rule="evenodd" clip-rule="evenodd" d="M538.025 1.30435C417.414 -12.2293 346.634 83.1837 403.522 155.656C387.383 197.368 401.978 214.239 401.62 260.129C384.141 248.805 366.76 243.446 350.052 246.697C299.833 120.271 75.5033 20.6407 0.147167 382.495C132.921 312.06 311.603 424.542 345.755 271.322C382.382 269.352 482.102 333.479 548.918 590.69C586.691 602.872 598.969 581.067 595.817 556.864C588.583 542.752 568.988 499.109 542.312 448.801C533.852 409.988 527.861 372.196 536.738 332.61C614.717 352.522 643.134 228.362 649.995 165.083C529.385 151.549 458.604 246.962 515.493 319.434C503.357 350.795 508.597 368.112 511.794 394.281C486.975 352.52 458.801 311.636 429.984 283.377C421.714 245.14 416.019 207.858 424.767 168.832C502.747 188.744 531.164 64.5834 538.025 1.30435Z" fill="url(#paint0_linear_2_36)"/>
<defs>
<linearGradient id="paint0_linear_2_36" x1="532" y1="556.5" x2="-66" y2="474" gradientUnits="userSpaceOnUse">
<stop stop-color="#99CC33"/>
<stop offset="1" stop-color="#32592E"/>
</linearGradient>
</defs>
</svg>
